<mxfile host="app.diagrams.net" modified="2021-09-27T08:43:57.870Z" agent="5.0 (Macintosh)" etag="HCyhU9E6pqPjZbNValV_" version="14.6.10" type="github">
  <diagram id="W4GwQIrfhb5KxSA95non" name="Page-1">
    <mxGraphModel dx="706" dy="483" grid="1" gridSize="5" guides="1" tooltips="1" connect="1" arrows="1" fold="1" page="1" pageScale="1" pageWidth="827" pageHeight="1169" math="0" shadow="0">
      <root>
        <mxCell id="0" />
        <mxCell id="1" parent="0" />
        <mxCell id="GncKsj3soZHbPC2nyNoi-145" value="" style="group;glass=0;sketch=0;" vertex="1" connectable="0" parent="1">
          <mxGeometry x="130" y="163" width="105" height="205" as="geometry" />
        </mxCell>
        <mxCell id="GncKsj3soZHbPC2nyNoi-146" value="" style="rounded=0;whiteSpace=wrap;html=1;glass=0;sketch=0;" vertex="1" parent="GncKsj3soZHbPC2nyNoi-145">
          <mxGeometry width="105" height="205" as="geometry" />
        </mxCell>
        <mxCell id="GncKsj3soZHbPC2nyNoi-147" value="" style="whiteSpace=wrap;html=1;aspect=fixed;rounded=1;fillColor=#000000;glass=0;sketch=0;" vertex="1" parent="GncKsj3soZHbPC2nyNoi-145">
          <mxGeometry x="5" y="5" width="20" height="20" as="geometry" />
        </mxCell>
        <mxCell id="GncKsj3soZHbPC2nyNoi-148" value="" style="whiteSpace=wrap;html=1;aspect=fixed;rounded=1;fillColor=#000000;glass=0;sketch=0;" vertex="1" parent="GncKsj3soZHbPC2nyNoi-145">
          <mxGeometry x="30" y="5" width="20" height="20" as="geometry" />
        </mxCell>
        <mxCell id="GncKsj3soZHbPC2nyNoi-149" value="" style="whiteSpace=wrap;html=1;aspect=fixed;rounded=1;fillColor=#000000;glass=0;sketch=0;" vertex="1" parent="GncKsj3soZHbPC2nyNoi-145">
          <mxGeometry x="55" y="5" width="20" height="20" as="geometry" />
        </mxCell>
        <mxCell id="GncKsj3soZHbPC2nyNoi-150" value="" style="whiteSpace=wrap;html=1;aspect=fixed;rounded=1;fillColor=#000000;glass=0;sketch=0;" vertex="1" parent="GncKsj3soZHbPC2nyNoi-145">
          <mxGeometry x="5" y="30" width="20" height="20" as="geometry" />
        </mxCell>
        <mxCell id="GncKsj3soZHbPC2nyNoi-151" value="" style="whiteSpace=wrap;html=1;aspect=fixed;rounded=1;fillColor=#000000;glass=0;sketch=0;" vertex="1" parent="GncKsj3soZHbPC2nyNoi-145">
          <mxGeometry x="30" y="30" width="20" height="20" as="geometry" />
        </mxCell>
        <mxCell id="GncKsj3soZHbPC2nyNoi-152" value="" style="whiteSpace=wrap;html=1;aspect=fixed;rounded=1;fillColor=#000000;glass=0;sketch=0;" vertex="1" parent="GncKsj3soZHbPC2nyNoi-145">
          <mxGeometry x="55" y="30" width="20" height="20" as="geometry" />
        </mxCell>
        <mxCell id="GncKsj3soZHbPC2nyNoi-153" value="" style="whiteSpace=wrap;html=1;aspect=fixed;rounded=1;fillColor=#000000;glass=0;sketch=0;" vertex="1" parent="GncKsj3soZHbPC2nyNoi-145">
          <mxGeometry x="5" y="55" width="20" height="20" as="geometry" />
        </mxCell>
        <mxCell id="GncKsj3soZHbPC2nyNoi-154" value="" style="whiteSpace=wrap;html=1;aspect=fixed;rounded=1;fillColor=#000000;glass=0;sketch=0;" vertex="1" parent="GncKsj3soZHbPC2nyNoi-145">
          <mxGeometry x="30" y="55" width="20" height="20" as="geometry" />
        </mxCell>
        <mxCell id="GncKsj3soZHbPC2nyNoi-155" value="" style="whiteSpace=wrap;html=1;aspect=fixed;rounded=1;fillColor=#000000;glass=0;sketch=0;" vertex="1" parent="GncKsj3soZHbPC2nyNoi-145">
          <mxGeometry x="55" y="55" width="20" height="20" as="geometry" />
        </mxCell>
        <mxCell id="GncKsj3soZHbPC2nyNoi-156" value="" style="whiteSpace=wrap;html=1;aspect=fixed;rounded=1;fillColor=#000000;glass=0;sketch=0;" vertex="1" parent="GncKsj3soZHbPC2nyNoi-145">
          <mxGeometry x="5" y="80" width="20" height="20" as="geometry" />
        </mxCell>
        <mxCell id="GncKsj3soZHbPC2nyNoi-157" value="" style="whiteSpace=wrap;html=1;aspect=fixed;rounded=1;fillColor=#000000;glass=0;sketch=0;" vertex="1" parent="GncKsj3soZHbPC2nyNoi-145">
          <mxGeometry x="30" y="80" width="20" height="20" as="geometry" />
        </mxCell>
        <mxCell id="GncKsj3soZHbPC2nyNoi-158" value="" style="whiteSpace=wrap;html=1;aspect=fixed;rounded=1;fillColor=#000000;glass=0;sketch=0;" vertex="1" parent="GncKsj3soZHbPC2nyNoi-145">
          <mxGeometry x="55" y="80" width="20" height="20" as="geometry" />
        </mxCell>
        <mxCell id="GncKsj3soZHbPC2nyNoi-159" value="" style="whiteSpace=wrap;html=1;aspect=fixed;rounded=1;fillColor=#000000;glass=0;sketch=0;" vertex="1" parent="GncKsj3soZHbPC2nyNoi-145">
          <mxGeometry x="5" y="105" width="20" height="20" as="geometry" />
        </mxCell>
        <mxCell id="GncKsj3soZHbPC2nyNoi-160" value="" style="whiteSpace=wrap;html=1;aspect=fixed;rounded=1;fillColor=#000000;glass=0;sketch=0;" vertex="1" parent="GncKsj3soZHbPC2nyNoi-145">
          <mxGeometry x="30" y="105" width="20" height="20" as="geometry" />
        </mxCell>
        <mxCell id="GncKsj3soZHbPC2nyNoi-161" value="" style="whiteSpace=wrap;html=1;aspect=fixed;rounded=1;fillColor=#000000;glass=0;sketch=0;" vertex="1" parent="GncKsj3soZHbPC2nyNoi-145">
          <mxGeometry x="55" y="105" width="20" height="20" as="geometry" />
        </mxCell>
        <mxCell id="GncKsj3soZHbPC2nyNoi-162" value="" style="whiteSpace=wrap;html=1;aspect=fixed;rounded=1;fillColor=#000000;glass=0;sketch=0;" vertex="1" parent="GncKsj3soZHbPC2nyNoi-145">
          <mxGeometry x="5" y="130" width="20" height="20" as="geometry" />
        </mxCell>
        <mxCell id="GncKsj3soZHbPC2nyNoi-163" value="" style="whiteSpace=wrap;html=1;aspect=fixed;rounded=1;fillColor=#000000;glass=0;sketch=0;" vertex="1" parent="GncKsj3soZHbPC2nyNoi-145">
          <mxGeometry x="30" y="130" width="20" height="20" as="geometry" />
        </mxCell>
        <mxCell id="GncKsj3soZHbPC2nyNoi-164" value="" style="whiteSpace=wrap;html=1;aspect=fixed;rounded=1;fillColor=#000000;glass=0;sketch=0;" vertex="1" parent="GncKsj3soZHbPC2nyNoi-145">
          <mxGeometry x="55" y="130" width="20" height="20" as="geometry" />
        </mxCell>
        <mxCell id="GncKsj3soZHbPC2nyNoi-165" value="" style="whiteSpace=wrap;html=1;aspect=fixed;rounded=1;fillColor=#000000;glass=0;sketch=0;" vertex="1" parent="GncKsj3soZHbPC2nyNoi-145">
          <mxGeometry x="5" y="155" width="20" height="20" as="geometry" />
        </mxCell>
        <mxCell id="GncKsj3soZHbPC2nyNoi-166" value="" style="whiteSpace=wrap;html=1;aspect=fixed;rounded=1;fillColor=#000000;glass=0;sketch=0;" vertex="1" parent="GncKsj3soZHbPC2nyNoi-145">
          <mxGeometry x="30" y="155" width="20" height="20" as="geometry" />
        </mxCell>
        <mxCell id="GncKsj3soZHbPC2nyNoi-167" value="" style="whiteSpace=wrap;html=1;aspect=fixed;rounded=1;fillColor=#000000;glass=0;sketch=0;" vertex="1" parent="GncKsj3soZHbPC2nyNoi-145">
          <mxGeometry x="55" y="155" width="20" height="20" as="geometry" />
        </mxCell>
        <mxCell id="GncKsj3soZHbPC2nyNoi-168" value="" style="whiteSpace=wrap;html=1;aspect=fixed;rounded=1;fillColor=#000000;glass=0;sketch=0;" vertex="1" parent="GncKsj3soZHbPC2nyNoi-145">
          <mxGeometry x="5" y="180" width="20" height="20" as="geometry" />
        </mxCell>
        <mxCell id="GncKsj3soZHbPC2nyNoi-169" value="" style="whiteSpace=wrap;html=1;aspect=fixed;rounded=1;fillColor=#000000;glass=0;sketch=0;" vertex="1" parent="GncKsj3soZHbPC2nyNoi-145">
          <mxGeometry x="30" y="180" width="20" height="20" as="geometry" />
        </mxCell>
        <mxCell id="GncKsj3soZHbPC2nyNoi-170" value="" style="whiteSpace=wrap;html=1;aspect=fixed;rounded=1;fillColor=#000000;glass=0;sketch=0;" vertex="1" parent="GncKsj3soZHbPC2nyNoi-145">
          <mxGeometry x="55" y="180" width="20" height="20" as="geometry" />
        </mxCell>
        <mxCell id="GncKsj3soZHbPC2nyNoi-171" value="" style="whiteSpace=wrap;html=1;aspect=fixed;rounded=1;fillColor=#000000;glass=0;sketch=0;" vertex="1" parent="GncKsj3soZHbPC2nyNoi-145">
          <mxGeometry x="79" y="180" width="20" height="20" as="geometry" />
        </mxCell>
        <mxCell id="GncKsj3soZHbPC2nyNoi-172" value="" style="whiteSpace=wrap;html=1;aspect=fixed;rounded=1;fillColor=#000000;glass=0;sketch=0;" vertex="1" parent="GncKsj3soZHbPC2nyNoi-145">
          <mxGeometry x="79" y="155" width="20" height="20" as="geometry" />
        </mxCell>
        <mxCell id="GncKsj3soZHbPC2nyNoi-173" value="" style="whiteSpace=wrap;html=1;aspect=fixed;rounded=1;fillColor=#000000;glass=0;sketch=0;" vertex="1" parent="GncKsj3soZHbPC2nyNoi-145">
          <mxGeometry x="79" y="130" width="20" height="20" as="geometry" />
        </mxCell>
        <mxCell id="GncKsj3soZHbPC2nyNoi-174" value="" style="whiteSpace=wrap;html=1;aspect=fixed;rounded=1;fillColor=#000000;glass=0;sketch=0;" vertex="1" parent="GncKsj3soZHbPC2nyNoi-145">
          <mxGeometry x="79" y="105" width="20" height="20" as="geometry" />
        </mxCell>
        <mxCell id="GncKsj3soZHbPC2nyNoi-175" value="" style="whiteSpace=wrap;html=1;aspect=fixed;rounded=1;fillColor=#000000;glass=0;sketch=0;" vertex="1" parent="GncKsj3soZHbPC2nyNoi-145">
          <mxGeometry x="79" y="80" width="20" height="20" as="geometry" />
        </mxCell>
        <mxCell id="GncKsj3soZHbPC2nyNoi-176" value="" style="whiteSpace=wrap;html=1;aspect=fixed;rounded=1;fillColor=#000000;glass=0;sketch=0;" vertex="1" parent="GncKsj3soZHbPC2nyNoi-145">
          <mxGeometry x="79" y="55" width="20" height="20" as="geometry" />
        </mxCell>
        <mxCell id="GncKsj3soZHbPC2nyNoi-177" value="" style="whiteSpace=wrap;html=1;aspect=fixed;rounded=1;fillColor=#000000;glass=0;sketch=0;" vertex="1" parent="GncKsj3soZHbPC2nyNoi-145">
          <mxGeometry x="79" y="30" width="20" height="20" as="geometry" />
        </mxCell>
        <mxCell id="GncKsj3soZHbPC2nyNoi-178" value="" style="whiteSpace=wrap;html=1;aspect=fixed;rounded=1;fillColor=#000000;glass=0;sketch=0;" vertex="1" parent="GncKsj3soZHbPC2nyNoi-145">
          <mxGeometry x="79" y="5" width="20" height="20" as="geometry" />
        </mxCell>
      </root>
    </mxGraphModel>
  </diagram>
</mxfile>
